<?xml version="1.0" encoding="utf-8"?>
<!-- Generator: Adobe Illustrator 27.7.0, SVG Export Plug-In . SVG Version: 6.00 Build 0)  -->
<svg version="1.1" id="Layer_1" xmlns="http://www.w3.org/2000/svg" xmlns:xlink="http://www.w3.org/1999/xlink" x="0px" y="0px"
	 viewBox="0 0 1022 223" style="enable-background:new 0 0 1022 223;" xml:space="preserve">
<style type="text/css">
	.st0{fill:#FBF5EE;}
</style>
<g>
	<path class="st0" d="M290.9,68.8c-12.5-7.1-26.5-10.7-41.9-10.7c-15.6,0-29.7,3.6-42.2,10.7c-12.5,7.1-22.5,16.9-30,29.2
		c-7.3,12.3-11,26.4-11,42.2c0,15.8,3.7,29.9,11,42.2c7.5,12.3,17.5,22.1,30,29.2c12.7,7.1,26.8,10.7,42.2,10.7
		c15.2,0,29.1-3.6,41.6-10.7c12.5-7.1,22.5-16.9,30-29.2c7.5-12.3,11.3-26.4,11.3-42.2c0-16-3.8-30-11.3-42.2
		C313.3,85.6,303.4,75.9,290.9,68.8z M286.6,164.7c-3.7,7.1-8.8,12.7-15.3,16.8c-6.4,4-13.8,6.1-22.2,6.1c-8.7,0-16.3-2-22.8-6.1
		c-6.5-4-11.7-9.6-15.6-16.8c-3.7-7.3-5.5-15.5-5.5-24.6c0-9.2,1.8-17.3,5.5-24.3c3.9-7.1,9.1-12.7,15.6-16.8
		c6.5-4.2,14.2-6.4,22.8-6.4c8.5,0,15.9,2.1,22.2,6.4c6.5,4,11.7,9.6,15.3,16.8c3.9,6.9,5.8,15,5.8,24.3
		C292.3,149.2,290.4,157.4,286.6,164.7z"/>
	<path class="st0" d="M460.6,68.8c-12.5-7.1-26.5-10.7-41.9-10.7c-15.6,0-29.7,3.6-42.2,10.7c-12.5,7.1-22.5,16.9-30,29.2
		c-7.3,12.3-11,26.4-11,42.2c0,15.8,3.7,29.9,11,42.2c7.5,12.3,17.5,22.1,30,29.2c12.7,7.1,26.8,10.7,42.2,10.7
		c15.2,0,29.1-3.6,41.6-10.7c12.5-7.1,22.5-16.9,30-29.2c7.5-12.3,11.3-26.4,11.3-42.2c0-16-3.8-30-11.3-42.2
		C483,85.6,473.1,75.9,460.6,68.8z M456.2,164.7c-3.7,7.1-8.8,12.7-15.3,16.8c-6.4,4-13.8,6.1-22.2,6.1c-8.7,0-16.3-2-22.8-6.1
		c-6.5-4-11.7-9.6-15.6-16.8c-3.7-7.3-5.5-15.5-5.5-24.6c0-9.2,1.8-17.3,5.5-24.3c3.9-7.1,9.1-12.7,15.6-16.8
		c6.5-4.2,14.2-6.4,22.8-6.4c8.5,0,15.9,2.1,22.2,6.4c6.5,4,11.7,9.6,15.3,16.8c3.9,6.9,5.8,15,5.8,24.3
		C462,149.2,460.1,157.4,456.2,164.7z"/>
	<path class="st0" d="M685.3,187.2c-6.2,0-11.3-1-15.3-2.9c-3.9-1.9-6.7-4.7-8.7-8.4c-1.7-3.7-2.6-8.1-2.6-13.3V95.3h36.1V61.5
		h-36.1V25.7h-37.8v12.1c0,7.7-2.1,13.6-6.4,17.6c-3.8,3.7-9.1,5.7-15.8,6v-1.7h-9.2c-11,0-20.4,2.3-28.3,6.9
		c-5.9,3.5-10.6,9.2-14.2,16.9V61.5h-35.5v157.2h37.8v-87.5c0-11.9,3.3-21.2,9.8-27.7c6.5-6.7,15.2-10.1,26-10.1h8.6v2h27.2v69.3
		c0,17.7,4.8,31.5,14.4,41.3c9.8,9.6,23.6,14.4,41.3,14.4c2.9,0,6.1-0.2,9.5-0.6c3.5-0.4,6.5-0.8,9.2-1.2v-32.4
		c-1.7,0.2-3.6,0.4-5.5,0.6C688.2,187.1,686.7,187.2,685.3,187.2z"/>
	<path class="st0" d="M832.2,80.9c-6.5-7.1-14.5-12.7-24-16.8c-9.2-4-20-6.1-32.4-6.1c-14.6,0-27.9,3.6-39.9,10.7
		c-11.7,7.1-21.1,16.9-28,29.2c-6.7,12.1-10.1,26.1-10.1,41.9c0,15.2,3.4,29.1,10.1,41.6c6.7,12.5,16.2,22.4,28.3,29.8
		c12.1,7.3,26.3,11,42.5,11c10.8,0,20.6-1.6,29.5-4.9c9.1-3.3,16.9-7.8,23.4-13.6s11.4-12.4,14.4-19.9l-30.6-15
		c-3.5,6.2-8.3,11.1-14.4,14.7c-6,3.7-13.3,5.5-22,5.5s-16.4-2-23.1-6.1c-6.5-4-11.6-9.7-15-17c-2-4.6-3.2-9.6-3.7-15h113.2
		c0.8-2.1,1.3-4.6,1.4-7.5c0.4-2.9,0.6-5.7,0.6-8.4c0-10.6-1.7-20.4-5.2-29.5C843.7,96.2,838.7,88,832.2,80.9z M754.7,95.3
		c6.2-4,13.2-6.1,21.1-6.1c8.3,0,15.3,2,21.1,6.1c6,4,10.2,9.5,12.7,16.5c1.2,3.2,2,6.5,2.3,10.1h-74c0.6-3.3,1.5-6.4,2.7-9.2
		C743.8,105,748.6,99.2,754.7,95.3z"/>
	<path class="st0" d="M983.3,0v77.5c-4.6-4.9-10-9-16.5-12.2c-9.2-4.8-19.8-7.2-31.8-7.2c-14.8,0-28.3,3.7-40.4,11
		c-11.9,7.3-21.4,17.1-28.3,29.5c-6.9,12.3-10.4,26.2-10.4,41.6c0,15.2,3.5,29.1,10.4,41.6c6.9,12.5,16.4,22.4,28.3,29.8
		c11.9,7.1,25.5,10.7,40.7,10.7c11.4,0,21.9-2.2,31.5-6.6c7.4-3.6,13.6-8.3,18.5-14.1v17.3h35.8V0H983.3z M977.6,164.7
		c-3.7,7.1-8.8,12.7-15.3,16.8c-6.5,4-14.2,6.1-22.8,6.1c-8.5,0-16.1-2-22.8-6.1c-6.7-4-12-9.6-15.9-16.8
		c-3.7-7.1-5.5-15.3-5.5-24.6s1.8-17.3,5.5-24.3c3.9-7.1,9.1-12.7,15.9-16.8c6.7-4.2,14.3-6.4,22.8-6.4c8.7,0,16.3,2,22.8,6.1
		c6.5,4,11.7,9.7,15.3,17c3.9,7.1,5.8,15.2,5.8,24.3C983.3,149.4,981.4,157.5,977.6,164.7z"/>
	<path class="st0" d="M138.5,34L36.4,80.7c-1.4,0.5-2.7,1.1-4,1.8l-0.3,0.1l0,0c-7.8,4.5-13.1,13-13.1,22.7
		c0,11.3,7.2,20.9,17.2,24.6c6,3.5,12.9,6.4,20.8,8.7l30.6,8.6c3.9,1.1,7.4,2.6,10.7,4.5c3.4,1.6,6.1,3.7,7.9,6.2
		c2.1,2.3,3.1,5.3,3.1,8.9c0,6-2.4,10.8-7.2,14.4c-4.8,3.7-11.3,5.5-19.6,5.5c-10.5,0-20.2-3-28.9-8.9c-8.5-6-15.1-14.2-19.9-24.7
		L0,169.2c5.5,16.3,15.6,29.2,30.2,38.8c14.9,9.4,32.3,14.1,52.2,14.1c14.2,0,26.6-2.4,37.1-7.2c10.5-4.8,18.8-11.5,24.7-19.9
		c6-8.7,8.9-18.7,8.9-29.9c0-13.3-4.2-24.5-12.7-33.7c-8.2-9.2-20-16-35.4-20.6l-17.4-5.2l69-31.6L138.5,34z"/>
</g>
</svg>
